<?xml version="1.0" encoding="UTF-8"?>
<svg version="1.1" xmlns="http://www.w3.org/2000/svg" width="512" height="512">
<path d="M0 0 C3.42228584 0.01709159 6.84387226 0.00692603 10.26613426 -0.01030159 C45.82726738 -0.16304492 45.82726738 -0.16304492 58.98486328 7.01611328 C59.97389648 7.5355249 59.97389648 7.5355249 60.98291016 8.06542969 C75.26637789 15.88216583 85.28222402 28.61920737 90.46325684 43.90968323 C93.10978673 53.27124181 93.08332077 62.39836551 93.07861328 72.04345703 C93.08573269 73.83362561 93.09343422 75.62379196 93.10168457 77.41395569 C93.11505642 81.14818686 93.11673073 84.88220683 93.11083984 88.61645508 C93.10494364 93.36828779 93.13556628 98.11909886 93.17595673 102.87073421 C93.20197909 106.56255925 93.20469819 110.25414275 93.20106506 113.94604683 C93.20274202 115.69650404 93.21224487 117.44697418 93.23020935 119.19734001 C93.36229188 133.65205141 91.57337562 145.40976314 81.01611328 156.23095703 C75.13837367 161.50756418 68.74699787 166.39111328 60.60986328 166.39111328 C60.61262866 167.09826414 60.61539404 167.805415 60.61824322 168.53399467 C60.68460444 185.77032078 60.73419309 203.00661427 60.7652998 220.24304008 C60.78074405 228.57857741 60.80178667 236.91402927 60.83618164 245.24951172 C60.866159 252.51789094 60.88545602 259.78620824 60.89212877 267.05464756 C60.89602696 270.90036955 60.90513683 274.74591442 60.92705345 278.59157944 C60.94755064 282.21786362 60.95367064 285.84389921 60.94918633 289.47023582 C60.9503937 291.42211976 60.96646614 293.37397718 60.98312378 295.32579041 C60.94497908 306.27080363 59.32408944 315.25706529 51.60986328 323.39111328 C45.40982151 329.2711529 38.17650739 332.35159824 29.60986328 332.76611328 C22.66389189 332.43001789 16.67338967 330.50295139 11.29736328 326.07861328 C9.43214295 324.51344922 9.43214295 324.51344922 7.60986328 323.39111328 C4.21764581 323.87571578 2.5453748 325.43597483 -0.26513672 327.39111328 C-6.85660805 331.60965493 -13.74902338 332.20356006 -21.39013672 331.39111328 C-30.67629689 329.28119662 -36.98343318 324.78396785 -42.76513672 317.32861328 C-47.77751141 308.26778211 -47.53457209 298.92023075 -47.50366211 288.84643555 C-47.50380814 287.59695633 -47.50395416 286.34747711 -47.50410461 285.06013489 C-47.50352929 281.65154316 -47.49853045 278.24301277 -47.49153066 274.83443189 C-47.48525917 271.26567597 -47.48469032 267.69691915 -47.48350525 264.12815857 C-47.4804031 257.37810051 -47.4722048 250.62805873 -47.46215576 243.87800783 C-47.45095991 236.18996501 -47.44547543 228.5019214 -47.44046032 220.81387246 C-47.43002121 205.00627665 -47.41244345 189.19869707 -47.39013672 173.39111328 C-48.07394409 173.39777512 -48.75775146 173.40443695 -49.46228027 173.41130066 C-56.60029381 173.47783908 -63.73821876 173.52299081 -70.87646484 173.5559082 C-73.53810095 173.56926495 -76.19924957 173.59141142 -78.86083984 173.61743164 C-82.69358424 173.65395443 -86.52599962 173.6708722 -90.35888672 173.68408203 C-91.54252808 173.69956589 -92.72616943 173.71504974 -93.94567871 173.73100281 C-100.48479424 173.73232511 -105.48699252 173.29475903 -111.39013672 170.39111328 C-115.04010673 166.55396532 -116.52087939 164.04845529 -116.48779297 158.82080078 C-116.48457031 157.92490234 -116.48134766 157.02900391 -116.47802734 156.10595703 C-116.46964844 155.16880859 -116.46126953 154.23166016 -116.45263672 153.26611328 C-116.448125 152.32123047 -116.44361328 151.37634766 -116.43896484 150.40283203 C-116.42716029 148.06552941 -116.4106943 145.72835267 -116.39013672 143.39111328 C-116.99486816 143.21153076 -117.59959961 143.03194824 -118.22265625 142.84692383 C-125.25104555 140.65435503 -129.69417088 138.0155102 -133.48779297 131.50830078 C-136.12718243 125.44384313 -136.61427639 118.98506182 -134.47607422 112.70751953 C-131.52759514 106.30646656 -128.24362138 102.77120675 -122.26513672 99.07861328 C-120.39013672 98.39111328 -120.39013672 98.39111328 -116.39013672 98.39111328 C-116.41108398 97.11993652 -116.43203125 95.84875977 -116.45361328 94.5390625 C-116.52617928 89.80919725 -116.57199697 85.07938093 -116.60986328 80.34912109 C-116.62994092 78.30444048 -116.65720897 76.25981701 -116.69189453 74.21533203 C-116.7405819 71.27117792 -116.76314416 68.32778494 -116.78076172 65.38330078 C-116.80140686 64.47369598 -116.822052 63.56409119 -116.84332275 62.62692261 C-116.84528261 57.0453316 -116.20073531 53.76847275 -112.39013672 49.39111328 C-106.68852749 44.62266957 -99.95696498 44.89998791 -92.89013672 45.14111328 C-91.37033203 45.16818359 -91.37033203 45.16818359 -89.81982422 45.19580078 C-87.34225065 45.24254745 -84.86671356 45.30804956 -82.39013672 45.39111328 C-82.20402832 44.7987085 -82.01791992 44.20630371 -81.82617188 43.59594727 C-75.91155686 25.23669793 -63.29948111 13.9227529 -46.73388672 5.00439453 C-31.99199653 -1.07314445 -15.62170644 -0.07867638 0 0 Z M-57.44091797 33.07470703 C-62.34788485 38.60536238 -62.34788485 38.60536238 -64.39013672 45.39111328 C-63.62870361 45.4056958 -62.86727051 45.42027832 -62.08276367 45.43530273 C-58.62221784 45.50991869 -55.16262227 45.60653587 -51.70263672 45.70361328 C-50.50445312 45.72617188 -49.30626953 45.74873047 -48.07177734 45.77197266 C-46.33637695 45.82514648 -46.33637695 45.82514648 -44.56591797 45.87939453 C-43.50284424 45.90557861 -42.43977051 45.9317627 -41.34448242 45.95874023 C-35.75113096 46.77733584 -32.45611277 50.07042007 -28.56201172 53.95361328 C-27.23943359 55.27232422 -27.23943359 55.27232422 -25.89013672 56.61767578 C-24.98263672 57.53291016 -24.07513672 58.44814453 -23.14013672 59.39111328 C-22.21716797 60.30634766 -21.29419922 61.22158203 -20.34326172 62.16455078 C-19.46669922 63.04369141 -18.59013672 63.92283203 -17.68701172 64.82861328 C-16.88618164 65.63169922 -16.08535156 66.43478516 -15.26025391 67.26220703 C-11.74392626 71.26512832 -12.23614079 75.54635087 -12.22900391 80.59106445 C-12.22155655 81.84528702 -12.22155655 81.84528702 -12.21395874 83.12484741 C-12.19933978 85.89460064 -12.19253447 88.66429654 -12.18701172 91.43408203 C-12.1812587 93.36119081 -12.17550098 95.28829957 -12.16973877 97.21540833 C-12.15922861 101.25973782 -12.15338648 105.30404744 -12.14990234 109.34838867 C-12.14442691 114.51881639 -12.12041928 119.68897954 -12.09193039 124.85932446 C-12.07325918 128.84258274 -12.06809595 132.82577797 -12.06656647 136.80907631 C-12.06354799 138.71437331 -12.05554674 140.61966942 -12.04238129 142.52492332 C-12.02523195 145.19821332 -12.02722294 147.87086602 -12.03369141 150.54418945 C-12.01986923 151.71424782 -12.01986923 151.71424782 -12.00576782 152.90794373 C-12.05332903 159.21646876 -13.19474119 164.86308207 -17.45263672 169.76611328 C-20.3285684 171.35705421 -22.37965736 171.89686328 -25.57373047 172.49267578 C-26.47534912 172.6636377 -27.37696777 172.83459961 -28.3059082 173.01074219 C-28.99370361 173.13626465 -29.68149902 173.26178711 -30.39013672 173.39111328 C-30.48361781 190.36772859 -30.55413432 207.34426347 -30.59738541 224.32107735 C-30.61800229 232.20388523 -30.64610601 240.08653311 -30.69189453 247.96923828 C-30.73178926 254.84058168 -30.75757589 261.71180919 -30.7664907 268.58326519 C-30.77170105 272.22101177 -30.78392854 275.85842682 -30.81305695 279.49606705 C-30.84532677 283.55905047 -30.84609445 287.62145913 -30.84423828 291.68457031 C-30.85861938 292.8879454 -30.87300049 294.0913205 -30.88781738 295.3311615 C-30.84738141 303.49756187 -29.6643625 306.73168446 -24.26513672 312.76611328 C-20.00240696 315.17548228 -16.17486098 315.15022819 -11.39013672 314.39111328 C-6.84489699 312.15981378 -4.61874904 309.88327761 -2.39013672 305.39111328 C-1.94111277 302.37663218 -1.94111277 302.37663218 -2.00486755 299.09094238 C-1.99521973 297.8207576 -1.9855719 296.55057281 -1.97563171 295.24189758 C-1.97999501 293.84176552 -1.98462743 292.44163428 -1.98950195 291.04150391 C-1.98375734 289.56120754 -1.97667371 288.08091585 -1.96835327 286.60063171 C-1.95325434 283.41727864 -1.94746466 280.23409313 -1.94888115 277.05070496 C-1.95091607 272.0164967 -1.93134005 266.98251353 -1.90870667 261.94836426 C-1.86774292 252.17136481 -1.84912897 242.39438313 -1.83253479 232.6173172 C-1.81017515 220.17222586 -1.77664086 207.72718655 -1.72533566 195.28218031 C-1.70541827 190.2783519 -1.69583432 185.27464135 -1.6943835 180.27077484 C-1.69163218 177.15775339 -1.6808 174.04479696 -1.66787338 170.93180275 C-1.66359571 169.4890535 -1.66273235 168.04628945 -1.66554832 166.60353661 C-1.66895342 164.63278047 -1.6590161 162.66201478 -1.64842224 160.69128418 C-1.64678794 159.58886131 -1.64515364 158.48643845 -1.64346981 157.35060883 C-1.37943485 154.26609158 -0.82663914 152.12740995 0.60986328 149.39111328 C4.09921799 147.06487681 5.51468926 147.14038834 9.60986328 147.39111328 C11.98486328 147.89111328 11.98486328 147.89111328 13.60986328 148.39111328 C14.66680282 151.85208042 14.73964444 155.03829039 14.74789429 158.6469574 C14.75334763 159.93259583 14.75880096 161.21823425 14.76441956 162.54283142 C14.76553926 163.96548457 14.76658979 165.38813777 14.76757812 166.81079102 C14.77224788 168.31063994 14.77739172 169.81048745 14.78297424 171.31033325 C14.79424432 174.53894861 14.80268367 177.76755479 14.80909348 180.9961834 C14.81978077 186.10166225 14.84002667 191.20707503 14.86221313 196.31251526 C14.92411581 210.8299762 14.97817273 225.34743282 15.01123047 239.86499023 C15.02957012 247.88382775 15.05849509 255.90255416 15.09923518 263.92131001 C15.12031101 268.16415093 15.13576331 272.40685182 15.13804245 276.64974785 C15.14018837 280.63973466 15.15605179 284.62942961 15.18243217 288.61932755 C15.18962796 290.08302896 15.19172477 291.54676572 15.1883297 293.01048088 C15.18443326 295.00976954 15.20065271 297.00906716 15.21786499 299.00828552 C15.22283021 300.68599108 15.22283021 300.68599108 15.22789574 302.39758968 C15.89250134 307.60618029 18.73567772 311.00120092 22.60986328 314.39111328 C26.34038895 315.63462184 29.73538371 315.91310199 33.60986328 315.39111328 C38.48074993 312.95566996 41.04713151 310.15863298 43.60986328 305.39111328 C44.175603 302.14297479 44.14853356 298.95169433 44.11538696 295.66110229 C44.12452214 294.19981767 44.12452214 294.19981767 44.13384187 292.70901215 C44.14944657 289.4476918 44.13665134 286.18710532 44.12402344 282.92578125 C44.12948381 280.58658384 44.13672496 278.24739001 44.14561462 275.90820312 C44.16095672 270.87286168 44.16375166 265.83772402 44.15684891 260.80236435 C44.14698626 253.51781458 44.15973354 246.23346774 44.17931347 238.94894363 C44.21063507 227.12383938 44.22565727 215.29877618 44.22900391 203.47363281 C44.22920789 202.76630875 44.22941188 202.05898468 44.22962205 201.33022656 C44.22982542 200.62200771 44.23002879 199.91378887 44.23023832 199.18410885 C44.23315961 189.13868355 44.23996582 179.09327089 44.25146484 169.04785156 C44.25227014 168.34078457 44.25307543 167.63371757 44.25390513 166.90522431 C44.26765403 155.12123123 44.28943746 143.33726082 44.31533468 131.55328858 C44.33186268 123.63806092 44.33724361 115.72292506 44.33374429 107.8076818 C44.33330818 102.89088191 44.34085766 97.97411688 44.35042 93.05732727 C44.35310946 90.77239752 44.35233981 88.48746076 44.34790993 86.20253372 C44.34229258 83.09065181 44.34878885 79.97902388 44.35830688 76.86715698 C44.35364367 75.95685537 44.34898046 75.04655376 44.34417593 74.10866725 C44.35167398 72.85869903 44.35167398 72.85869903 44.3593235 71.58347893 C44.35943353 70.86526274 44.35954356 70.14704654 44.35965693 69.40706623 C44.65544593 67.02384649 45.35354061 65.43014341 46.60986328 63.39111328 C49.62854762 61.88177111 52.28283557 62.21600656 55.60986328 62.39111328 C58.60986328 64.39111328 58.60986328 64.39111328 59.60986328 67.39111328 C59.72967057 70.02157019 59.79515144 72.62757221 59.81518555 75.2590332 C59.82508514 76.05926407 59.83498474 76.85949493 59.84518433 77.68397522 C59.87677932 80.32981403 59.90154886 82.9756708 59.92626953 85.62158203 C59.94684078 87.45575935 59.9678373 89.28993195 59.98924255 91.12409973 C60.04444551 95.95242488 60.09386265 100.7807927 60.14208984 105.60919189 C60.19231781 110.53588662 60.24799712 115.46251937 60.30322266 120.38916016 C60.41078252 130.05642493 60.51223235 139.7237435 60.60986328 149.39111328 C64.49468501 147.51255301 67.44945449 145.97638492 70.29736328 142.70361328 C70.85810547 142.08099609 71.41884766 141.45837891 71.99658203 140.81689453 C77.51889861 132.51336282 77.05195965 123.87645597 77.00830078 114.28173828 C77.01032586 112.70766058 77.01324091 111.1335838 77.01699829 109.55950928 C77.02140642 106.26793443 77.01504313 102.97660478 77.00097656 99.68505859 C76.98394199 95.49820383 76.9936988 91.3119286 77.01169395 87.12509537 C77.02262135 83.87509938 77.01904386 80.6252369 77.01131058 77.37523651 C77.00933025 75.83330972 77.01169024 74.29137021 77.01874924 72.74945831 C77.06210006 60.61434572 76.10454621 48.97833613 69.60986328 38.39111328 C69.21283203 37.73626953 68.81580078 37.08142578 68.40673828 36.40673828 C61.62519317 26.35134381 50.39025484 19.8121731 38.60986328 17.39111328 C36.43239449 17.28901635 34.25208947 17.24271293 32.07226562 17.22998047 C31.10061966 17.22253311 31.10061966 17.22253311 30.10934448 17.2149353 C27.97148563 17.20036215 25.83370111 17.19351784 23.69580078 17.18798828 C22.96173634 17.1851609 22.22767189 17.18233353 21.47136307 17.17942047 C17.58246757 17.16444291 13.69360898 17.15520597 9.8046875 17.15087891 C5.81038297 17.14541363 1.81642266 17.12142307 -2.17777443 17.09290695 C-5.26810651 17.07416525 -8.35835783 17.06906876 -11.44874191 17.06754303 C-12.91977178 17.06453908 -14.39080101 17.05658802 -15.86177444 17.04335785 C-32.3989281 16.90530418 -45.80639745 20.73000034 -57.44091797 33.07470703 Z M-100.39013672 62.39111328 C-100.39013672 74.27111328 -100.39013672 86.15111328 -100.39013672 98.39111328 C-97.42013672 99.38111328 -94.45013672 100.37111328 -91.39013672 101.39111328 C-86.96908409 103.6016396 -86.96908409 103.6016396 -85.39013672 107.39111328 C-84.87451172 108.29861328 -84.35888672 109.20611328 -83.82763672 110.14111328 C-80.75090579 117.0972006 -80.96595402 123.30301387 -83.39013672 130.39111328 C-87.28623121 137.89470268 -92.58576019 140.78965444 -100.39013672 143.39111328 C-100.39013672 147.68111328 -100.39013672 151.97111328 -100.39013672 156.39111328 C-76.63013672 156.39111328 -52.87013672 156.39111328 -28.39013672 156.39111328 C-27.95281775 142.71676692 -27.95281775 142.71676692 -27.65771484 129.04150391 C-27.56849807 123.45050869 -27.46375407 117.8632443 -27.25854492 112.27514648 C-25.4917277 89.88894627 -25.4917277 89.88894627 -32.32516479 69.31130981 C-39.18402088 62.04783884 -47.7286597 61.2231428 -57.32373047 60.92626953 C-62.50124618 60.96091756 -67.65696637 61.19972637 -72.82763672 61.45361328 C-75.50503763 61.53760158 -78.18279645 61.59909634 -80.86083984 61.65869141 C-87.37985907 61.81001497 -93.87008062 62.10318146 -100.39013672 62.39111328 Z M-117.30419922 115.72314453 C-119.00688043 118.33841387 -118.76934748 120.35742719 -118.39013672 123.39111328 C-116.84507206 125.42778943 -115.66867516 126.25184406 -113.39013672 127.39111328 C-108.26431707 127.89461569 -103.83178093 128.08421146 -99.14013672 125.82861328 C-97.03778262 123.40044285 -97.03778262 123.40044285 -97.39013672 119.76611328 C-98.07271195 116.14037439 -98.07271195 116.14037439 -101.39013672 114.39111328 C-104.71850143 114.03443527 -104.71850143 114.03443527 -108.39013672 114.07861328 C-109.62763672 114.06185547 -110.86513672 114.04509766 -112.14013672 114.02783203 C-115.32901739 114.1229547 -115.32901739 114.1229547 -117.30419922 115.72314453 Z " fill="#000000" transform="translate(143.39013671875,172.60888671875)"/>
<path d="M0 0 C21.42202811 20.78722826 33.19052867 49.77191872 34.82446289 79.33984375 C35.24100479 111.65655316 24.35273339 142.34162598 1.92480469 165.82983398 C-15.10554899 183.11530888 -34.74213098 193.99891204 -58.37866211 199.6640625 C-59.38026367 199.90898437 -60.38186523 200.15390625 -61.41381836 200.40625 C-90.13415538 206.04981555 -122.63181216 200.26296058 -147.28979492 184.4375 C-158.23108747 177.08089867 -158.23108747 177.08089867 -161.12255859 173.51098633 C-164.34625164 170.87196048 -166.34291331 171.39319769 -170.43725586 171.78125 C-171.4832621 171.8725972 -171.4832621 171.8725972 -172.55039978 171.96578979 C-174.82976466 172.17325223 -177.10348339 172.41504627 -179.37866211 172.6640625 C-180.52809296 172.78448914 -180.52809296 172.78448914 -181.70074463 172.90734863 C-188.11355268 173.58185252 -194.51880066 174.3203405 -200.92138672 175.08544922 C-203.33469678 175.37206108 -205.74907307 175.64765686 -208.16381836 175.921875 C-208.88682632 176.01139435 -209.60983429 176.1009137 -210.35475159 176.19314575 C-215.37005776 176.7534623 -220.77989237 177.22332434 -225.25366211 174.5390625 C-227.08539472 171.48617481 -227.2730841 169.23963791 -227.37866211 165.6640625 C-226.11028805 162.29890997 -224.26425425 159.34187052 -222.37866211 156.2890625 C-221.84772949 155.39509766 -221.31679687 154.50113281 -220.76977539 153.58007812 C-218.99167215 150.59626423 -217.18622817 147.63010985 -215.37866211 144.6640625 C-213.33746166 141.27988882 -211.30050974 137.89319917 -209.26538086 134.50537109 C-207.9432296 132.30938055 -206.61526842 130.11687563 -205.28100586 127.92822266 C-204.6712793 126.9232373 -204.06155273 125.91825195 -203.43334961 124.8828125 C-202.89178223 123.99529297 -202.35021484 123.10777344 -201.79223633 122.19335938 C-198.75566594 116.76004863 -198.14845175 114.03053527 -199.69116211 107.9140625 C-200.96945002 102.46154239 -202.07312427 97.25633085 -202.37866211 91.6640625 C-202.43151367 90.69984375 -202.48436523 89.735625 -202.53881836 88.7421875 C-203.4369039 55.47397542 -191.22664652 25.40915857 -168.8059082 1.09960938 C-147.88307019 -20.74661082 -118.98109767 -32.63830465 -89.00366211 -34.2734375 C-55.20509066 -34.85617149 -24.5938652 -23.00490464 0 0 Z M-161.37866211 17.6640625 C-171.8989874 30.70048485 -179.35411575 45.35405882 -183.37866211 61.6640625 C-183.60295898 62.55351563 -183.82725586 63.44296875 -184.05834961 64.359375 C-187.1914324 79.42392376 -186.20122328 95.05611297 -182.25366211 109.81640625 C-180.68913123 116.69615141 -181.00140268 120.92278283 -184.70288086 126.97265625 C-185.21779839 127.82827904 -185.21779839 127.82827904 -185.74311829 128.70118713 C-186.83658332 130.51042197 -187.95077799 132.30577714 -189.06616211 134.1015625 C-189.79608002 135.30188276 -190.52460819 136.50304929 -191.25170898 137.70507812 C-194.24386514 142.63549644 -197.28996716 147.52867632 -200.39819336 152.38671875 C-202.55105994 155.31114186 -202.55105994 155.31114186 -202.37866211 157.6640625 C-192.53689108 157.18520552 -182.76449669 156.48314181 -172.97705078 155.32470703 C-170.77916509 155.0733436 -168.58246783 154.85631898 -166.37866211 154.6640625 C-165.67032227 154.59775635 -164.96198242 154.5314502 -164.23217773 154.46313477 C-160.65352001 154.27081979 -158.6287268 154.5121637 -155.54272461 156.38671875 C-154.70483398 157.15886719 -153.86694336 157.93101562 -153.00366211 158.7265625 C-152.06135742 159.5515625 -151.11905273 160.3765625 -150.14819336 161.2265625 C-148.77727539 162.433125 -148.77727539 162.433125 -147.37866211 163.6640625 C-125.69538866 180.86732077 -98.50120695 188.01153315 -71.12866211 184.9765625 C-51.96171919 182.12023493 -34.46102039 174.95078116 -19.37866211 162.6640625 C-18.55108398 162.00019531 -17.72350586 161.33632812 -16.87084961 160.65234375 C2.56963941 144.16754036 14.17145648 120.7310907 17.62133789 95.6640625 C19.87354989 66.79999159 12.44178627 40.8637908 -5.97241211 18.44921875 C-20.58070074 1.39085722 -39.6993805 -9.85858185 -61.37866211 -15.3359375 C-62.82885742 -15.70332031 -62.82885742 -15.70332031 -64.30834961 -16.078125 C-100.00045561 -23.45921208 -137.6566836 -9.57736176 -161.37866211 17.6640625 Z " fill="#000000" transform="translate(469.378662109375,41.3359375)"/>
<path d="M0 0 C1.77685547 1.25048828 1.77685547 1.25048828 3.6171875 2.9453125 C4.31312012 3.58178711 5.00905273 4.21826172 5.72607422 4.87402344 C6.85166748 5.92638184 6.85166748 5.92638184 8 7 C8.80066895 7.72993164 9.60133789 8.45986328 10.42626953 9.21191406 C12.98428885 11.56650544 15.49398505 13.96522218 18 16.375 C18.87011719 17.17421875 19.74023438 17.9734375 20.63671875 18.796875 C21.86841797 19.99183594 21.86841797 19.99183594 23.125 21.2109375 C23.87007812 21.91524902 24.61515625 22.61956055 25.3828125 23.34521484 C27.35264803 26.57890923 27.92502661 28.73265647 27.73831177 32.50500488 C26.09109787 38.07147533 21.28183214 41.77140626 17.18359375 45.66015625 C16.16699532 46.65738765 15.15246499 47.65673126 14.13990784 48.6580658 C11.47388578 51.28418602 8.78245937 53.88262488 6.08416748 56.4755249 C2.83038269 59.61135864 -0.39346613 62.77789225 -3.62097836 65.94071865 C-6.13734515 68.40572905 -8.65786618 70.86584602 -11.1934967 73.31105042 C-15.75687354 77.7300297 -20.13971876 82.18438721 -24.26475525 87.01441956 C-30.1125118 93.70580476 -36.5534791 99.90189466 -42.80615234 106.21118164 C-44.60832724 108.03507933 -46.40420302 109.8652218 -48.19384766 111.70141602 C-50.79196802 114.36630717 -53.40912156 117.01109785 -56.03125 119.65234375 C-56.82623901 120.47516342 -57.62122803 121.29798309 -58.44030762 122.14573669 C-61.8342245 125.52722569 -64.13664602 127.72145699 -68.74804688 129.20922852 C-74.63476749 128.8304808 -78.02180075 125.22782194 -82.04980469 121.19311523 C-82.52685349 120.71796478 -83.00390228 120.24281433 -83.4954071 119.75326538 C-85.05914776 118.19320711 -86.61560922 116.62610596 -88.171875 115.05859375 C-89.26056009 113.96871568 -90.34961606 112.87920798 -91.43902588 111.79005432 C-93.71490663 109.51261328 -95.9873992 107.2318632 -98.25732422 104.94848633 C-101.16988602 102.01888485 -104.08903797 99.09595994 -107.01050949 96.17524624 C-109.25667403 93.92881018 -111.50022611 91.67978063 -113.74289703 89.42985725 C-114.81881897 88.35075008 -115.89535035 87.2722502 -116.97249603 86.19436455 C-118.47345897 84.69123939 -119.97108651 83.18487156 -121.46777344 81.67749023 C-122.32095154 80.82050034 -123.17412964 79.96351044 -124.05316162 79.08055115 C-126.47602723 76.49127826 -126.93507666 75.40577086 -127.5 71.875 C-126.97588966 67.8131449 -126.65579095 67.19708476 -124.05078125 64.34765625 C-123.41543457 63.6515625 -122.78008789 62.95546875 -122.12548828 62.23828125 C-118.37204787 58.28565758 -114.5511612 54.407268 -110.6875 50.5625 C-109.87732422 49.74845703 -109.06714844 48.93441406 -108.23242188 48.09570312 C-107.45833984 47.32291016 -106.68425781 46.55011719 -105.88671875 45.75390625 C-105.18764404 45.05595947 -104.48856934 44.3580127 -103.76831055 43.63891602 C-101.37392886 41.41974105 -100.150466 41.02407456 -96.875 40.5 C-91.21197032 41.23071351 -88.93100151 44.03161972 -85 48 C-83.79366109 49.1947099 -82.58656573 50.38865625 -81.37890625 51.58203125 C-77.89822248 55.03414519 -74.44457949 58.51187948 -71 62 C-67.70007891 60.55810719 -65.52170824 58.76993921 -62.98510742 56.22802734 C-62.20717331 55.45316986 -61.4292392 54.67831238 -60.62773132 53.87997437 C-59.79538467 53.0404422 -58.96303802 52.20091003 -58.10546875 51.3359375 C-57.23988846 50.46989899 -56.37430817 49.60386047 -55.48249817 48.71157837 C-53.6502678 46.8763264 -51.820469 45.03864413 -49.99291992 43.19873047 C-47.21383909 40.40151101 -44.42695851 37.6122587 -41.63867188 34.82421875 C-39.85630055 33.0369272 -38.07438492 31.24918107 -36.29296875 29.4609375 C-35.46669479 28.63355072 -34.64042084 27.80616394 -33.78910828 26.95370483 C-29.53659926 22.66673975 -25.42494043 18.31454183 -21.49942017 13.72523499 C-19.17477368 11.05049341 -16.6969721 8.5649526 -14.1875 6.0625 C-13.71119141 5.58232422 -13.23488281 5.10214844 -12.74414062 4.60742188 C-8.46709469 0.34240701 -6.16578573 -0.79558526 0 0 Z M-4 20 C-7.57794452 23.55299372 -11.15241386 27.10943651 -14.72387695 30.66894531 C-15.93617248 31.87625065 -17.1493687 33.08265234 -18.36352539 34.28808594 C-26.94546795 42.80851272 -26.94546795 42.80851272 -35.03881836 51.78759766 C-39.54244252 56.86812077 -44.33761244 61.68132817 -49.10644531 66.51147461 C-50.37509543 67.80187956 -51.63743252 69.09851983 -52.89355469 70.40112305 C-54.72716468 72.3016479 -56.57972691 74.1817178 -58.4375 76.05859375 C-58.99187744 76.64080185 -59.54625488 77.22300995 -60.11743164 77.82286072 C-62.95378527 80.64457233 -64.67170037 81.90337707 -68.59765625 83.05883789 C-74.59051377 82.95520136 -77.59882015 79.65153603 -81.64453125 75.55078125 C-82.90620117 74.27944336 -82.90620117 74.27944336 -84.19335938 72.98242188 C-85.05767578 72.10134766 -85.92199219 71.22027344 -86.8125 70.3125 C-87.69615234 69.41982422 -88.57980469 68.52714844 -89.49023438 67.60742188 C-91.66474729 65.40940071 -93.83444427 63.2068407 -96 61 C-97.08839774 61.88967344 -98.17044608 62.78711574 -99.25 63.6875 C-99.85328125 64.18636719 -100.4565625 64.68523437 -101.078125 65.19921875 C-103.50453961 67.38691933 -103.50453961 67.38691933 -107 72 C-95.12 83.88 -83.24 95.76 -71 108 C-67.03113419 106.0155671 -64.48354464 103.76032886 -61.42456055 100.66748047 C-60.87926697 100.12408524 -60.33397339 99.58069 -59.77215576 99.02082825 C-57.97208859 97.22446267 -56.17932151 95.42099955 -54.38671875 93.6171875 C-53.13161626 92.36089192 -51.87614279 91.10496686 -50.62031555 89.84939575 C-47.98701213 87.2145281 -45.35710074 84.57633642 -42.72973633 81.93554688 C-39.37936191 78.5682616 -36.02252246 75.2075166 -32.66330242 71.84905815 C-30.0677549 69.25323708 -27.47483469 66.6548048 -24.882761 64.05551529 C-23.64711152 62.81670541 -22.41087466 61.57848109 -21.17401695 60.34087753 C-12.51957703 51.68798051 -12.51957703 51.68798051 -4.35418701 42.5765686 C-2.21443008 40.08542553 0.09960816 37.80586592 2.4375 35.5 C3.73494141 34.21609375 3.73494141 34.21609375 5.05859375 32.90625 C5.69925781 32.2771875 6.33992188 31.648125 7 31 C6.11032656 29.91160226 5.21288426 28.82955392 4.3125 27.75 C3.56419922 26.84507813 3.56419922 26.84507813 2.80078125 25.921875 C0.70934425 23.68979907 -1.59940583 21.89023163 -4 20 Z " fill="#000000" transform="translate(430,61)"/>
<path d="M0 0 C8.41546288 8.76891232 12.73928436 20.76885113 13.1875 32.75 C12.82139412 48.19105395 6.64125926 62.45482211 -4.125 73.5 C-14.00363054 82.06049243 -23.95968563 86.63968503 -37.125 86.5 C-50.60787036 85.37976151 -60.17898736 77.97304473 -69.1328125 68.33984375 C-77.23909931 58.67195624 -81.52922349 46.23500818 -81.4375 33.6875 C-81.43258545 32.89287354 -81.4276709 32.09824707 -81.42260742 31.27954102 C-81.30296137 25.27576337 -80.60252852 20.02679439 -78.125 14.5 C-77.79628906 13.75878906 -77.46757813 13.01757812 -77.12890625 12.25390625 C-71.24248605 0.50143408 -61.814431 -7.86914861 -49.5 -12.3125 C-31.19117192 -17.7030783 -13.94288013 -12.52450653 0 0 Z M-58.125 13.5 C-63.52306861 20.35403623 -65.86958594 27.71388589 -65.125 36.5 C-63.25617718 46.67644696 -59.01340619 55.62292794 -51.125 62.5 C-50.34125 63.20125 -49.5575 63.9025 -48.75 64.625 C-42.46460189 69.11457008 -36.78647378 70.66986576 -29.125 69.5 C-19.82003337 66.6742586 -13.13619508 59.93308706 -8.48828125 51.546875 C-4.26463796 42.49448194 -2.40141877 33.63070178 -4.80859375 23.671875 C-8.59647899 13.42415227 -15.21309344 7.7988645 -24.875 3.1875 C-37.96592538 0.41826578 -49.07771688 3.60642313 -58.125 13.5 Z " fill="#000000" transform="translate(184.125,62.5)"/>
<path d="M0 0 C1.04481033 -0.01283524 2.08962067 -0.02567047 3.16609192 -0.03889465 C4.29939438 -0.04628159 5.43269684 -0.05366852 6.6003418 -0.0612793 C8.34289497 -0.07338692 8.34289497 -0.07338692 10.12065125 -0.08573914 C12.58286034 -0.09958831 15.04508871 -0.11030672 17.50732422 -0.11816406 C21.27372595 -0.13537996 25.03925087 -0.17926062 28.80541992 -0.22338867 C31.19538741 -0.23351502 33.58536238 -0.2420313 35.9753418 -0.2487793 C37.10257156 -0.26628738 38.22980133 -0.28379547 39.39118958 -0.30183411 C47.2206731 -0.28010746 47.2206731 -0.28010746 51.17529297 2.07861328 C53.9387075 5.27919917 54.11522185 7.05546985 54.13232422 11.20581055 C54.13870407 12.25384857 54.14508392 13.3018866 54.1516571 14.38168335 C54.15276993 15.51812286 54.15388275 16.65456238 54.1550293 17.82543945 C54.1600219 19.57155014 54.1600219 19.57155014 54.16511536 21.35293579 C54.17018578 23.81935225 54.17252365 26.2857756 54.17236328 28.75219727 C54.17454744 32.52933045 54.1926958 36.30617058 54.21166992 40.08325195 C54.21460425 42.47648012 54.21658878 44.86970967 54.2175293 47.26293945 C54.22471481 48.39533051 54.23190033 49.52772156 54.23930359 50.69442749 C54.23622696 51.74876984 54.23315033 52.80311218 54.22998047 53.8894043 C54.23140549 54.81602875 54.23283051 55.7426532 54.23429871 56.69735718 C53.96524992 59.39574897 53.52268502 60.9453226 51.98706055 63.17700195 C48.94145573 65.26869528 46.36968996 65.42950211 42.73120117 65.43579102 C41.15937073 65.4452475 41.15937073 65.4452475 39.55578613 65.45489502 C37.86661072 65.44882233 37.86661072 65.44882233 36.14331055 65.44262695 C34.98206665 65.44454041 33.82082275 65.44645386 32.62438965 65.44842529 C30.16991967 65.44978591 27.71544247 65.4460981 25.26098633 65.43774414 C21.50154473 65.42704318 17.74258101 65.43764392 13.9831543 65.45043945 C11.59903866 65.44911784 9.21492332 65.4465554 6.83081055 65.44262695 C5.7046936 65.44667542 4.57857666 65.45072388 3.41833496 65.45489502 C2.370448 65.4485907 1.32256104 65.44228638 0.24291992 65.43579102 C-1.13796814 65.43340424 -1.13796814 65.43340424 -2.54675293 65.43096924 C-5.23406836 65.15423015 -6.78802307 64.70505403 -9.01293945 63.17700195 C-11.093276 60.14138043 -11.27334671 57.56226485 -11.3034668 53.93701172 C-11.3162265 52.89235245 -11.32898621 51.84769318 -11.34213257 50.77137756 C-11.34435822 49.64839767 -11.34658386 48.52541779 -11.34887695 47.3684082 C-11.35553375 46.20953598 -11.36219055 45.05066376 -11.36904907 43.85667419 C-11.37917192 41.40641873 -11.38386621 38.95613572 -11.38354492 36.50585938 C-11.38791891 32.75710682 -11.42424687 29.00953066 -11.4621582 25.26098633 C-11.4680262 22.88013098 -11.47199571 20.49927004 -11.47387695 18.1184082 C-11.48824799 16.99745255 -11.50261902 15.87649689 -11.51742554 14.72157288 C-11.47175361 6.94430067 -11.47175361 6.94430067 -9.10913086 2.99316406 C-5.92433397 0.2338228 -4.13534913 0.04415237 0 0 Z M5.98706055 17.17700195 C5.98706055 27.40700195 5.98706055 37.63700195 5.98706055 48.17700195 C16.21706055 48.17700195 26.44706055 48.17700195 36.98706055 48.17700195 C36.98706055 37.94700195 36.98706055 27.71700195 36.98706055 17.17700195 C26.75706055 17.17700195 16.52706055 17.17700195 5.98706055 17.17700195 Z " fill="#000000" transform="translate(288.012939453125,338.822998046875)"/>
<path d="M0 0 C1.08807953 -0.00960754 2.17615906 -0.01921509 3.29721069 -0.02911377 C4.47739777 -0.03336365 5.65758484 -0.03761353 6.87353516 -0.04199219 C8.08200104 -0.04769226 9.29046692 -0.05339233 10.53555298 -0.05926514 C13.09612143 -0.06872493 15.65670212 -0.07525299 18.21728516 -0.07910156 C22.13937559 -0.08880971 26.06094275 -0.11982586 29.98291016 -0.15136719 C32.46728204 -0.15789673 34.95165767 -0.16314739 37.43603516 -0.16699219 C39.20024307 -0.18551239 39.20024307 -0.18551239 41.00009155 -0.20440674 C42.0944754 -0.20140564 43.18885925 -0.19840454 44.31640625 -0.1953125 C45.27856049 -0.19895813 46.24071472 -0.20260376 47.23202515 -0.20635986 C50.25794088 0.22876842 51.60419408 1.04794174 53.78759766 3.16113281 C54.78206374 6.14453107 54.93123358 8.17003309 54.96459961 11.28759766 C54.98385246 12.85469986 54.98385246 12.85469986 55.00349426 14.45346069 C55.0108812 15.58160187 55.01826813 16.70974304 55.02587891 17.87207031 C55.03395065 19.03235748 55.0420224 20.19264465 55.05033875 21.38809204 C55.06417514 23.84432482 55.07489928 26.30057678 55.08276367 28.75683594 C55.09999782 32.51436657 55.14389201 36.2710223 55.18798828 40.02832031 C55.19811335 42.41373051 55.20663003 44.79914818 55.21337891 47.18457031 C55.23088699 48.30866302 55.24839508 49.43275574 55.26643372 50.59091187 C55.25446553 54.89060046 55.10439536 58.33626569 53.5559082 62.36816406 C48.79144555 65.45399295 43.612288 64.87142592 38.06884766 64.82519531 C36.81881958 64.82997894 35.5687915 64.83476257 34.28088379 64.83969116 C31.63722171 64.84309465 28.99587079 64.83638398 26.35253906 64.81298828 C22.96917616 64.78449766 19.5877961 64.80090565 16.20450592 64.8308506 C12.97171592 64.85329153 9.73916356 64.83756671 6.50634766 64.82519531 C5.2927356 64.83531647 4.07912354 64.84543762 2.82873535 64.85586548 C-5.3191402 64.74201753 -5.3191402 64.74201753 -8.97631836 62.36376953 C-10.90754407 57.36005259 -10.7619445 52.57317885 -10.70849609 47.25488281 C-10.70995132 46.09742554 -10.71140656 44.93996826 -10.71290588 43.74743652 C-10.71124775 41.30311564 -10.69969617 38.85878423 -10.67895508 36.41455078 C-10.65000719 32.67467873 -10.65834787 28.93622491 -10.67138672 25.19628906 C-10.66514898 22.81998009 -10.65675776 20.4436756 -10.64599609 18.06738281 C-10.64893173 16.94956421 -10.65186737 15.83174561 -10.65489197 14.68005371 C-10.64220779 13.63546997 -10.62952362 12.59088623 -10.61645508 11.51464844 C-10.61105209 10.59929321 -10.60564911 9.68393799 -10.6000824 8.74084473 C-10.13058124 5.61667643 -9.04529304 3.71372869 -7.21240234 1.16113281 C-4.6649532 -0.11259176 -2.85202199 0.02027312 0 0 Z M6.78759766 16.16113281 C6.78759766 26.72113281 6.78759766 37.28113281 6.78759766 48.16113281 C17.01759766 48.16113281 27.24759766 48.16113281 37.78759766 48.16113281 C37.78759766 37.60113281 37.78759766 27.04113281 37.78759766 16.16113281 C27.55759766 16.16113281 17.32759766 16.16113281 6.78759766 16.16113281 Z " fill="#000000" transform="translate(287.21240234375,423.8388671875)"/>
<path d="M0 0 C1.08485184 -0.01606293 2.16970367 -0.03212585 3.28742981 -0.04867554 C8.25102165 -0.09305494 13.21447892 -0.13418717 18.17822266 -0.15722656 C20.79810463 -0.17379473 23.41794125 -0.2010956 26.03759766 -0.23925781 C29.81005362 -0.29394832 33.58144934 -0.31588962 37.35424805 -0.33056641 C39.11071404 -0.36457047 39.11071404 -0.36457047 40.90266418 -0.39926147 C45.62198871 -0.38697038 48.86117056 -0.32387429 53.04003906 1.96777344 C55.77724339 6.9737916 55.51743239 11.69853464 55.4675293 17.31787109 C55.47231293 18.49752441 55.47709656 19.67717773 55.48202515 20.89257812 C55.48542407 23.3839654 55.47622245 25.87539729 55.45532227 28.36669922 C55.42856023 32.17956009 55.45507423 35.98947677 55.48706055 39.80224609 C55.48375645 42.22412759 55.47735023 44.64600726 55.4675293 47.06787109 C55.48271103 48.77740967 55.48271103 48.77740967 55.49819946 50.52148438 C55.42967483 55.15015934 55.28407669 58.31727301 53.03564453 62.41357422 C47.96280729 65.20614449 43.12253466 64.86683019 37.42456055 64.78662109 C35.61822899 64.78668152 35.61822899 64.78668152 33.77540588 64.78674316 C31.2327044 64.78138718 28.69000338 64.76380148 26.14746094 64.73486328 C22.25168393 64.6929863 18.35763418 64.69379722 14.46166992 64.70068359 C11.99095476 64.69019202 9.52024852 64.67725411 7.04956055 64.66162109 C5.8828331 64.66141968 4.71610565 64.66121826 3.51402283 64.66101074 C2.42932205 64.64509888 1.34462128 64.62918701 0.22705078 64.61279297 C-0.72605484 64.60437378 -1.67916046 64.59595459 -2.66114807 64.58728027 C-5.65878449 64.12096243 -7.02475204 63.28618564 -9.1965332 61.19287109 C-10.18452203 58.22890461 -10.33424745 56.25197517 -10.35766602 53.15820312 C-10.37207733 51.62113205 -10.37207733 51.62113205 -10.38677979 50.05300903 C-10.39102966 48.94674164 -10.39527954 47.84047424 -10.3996582 46.70068359 C-10.40820831 44.99354691 -10.40820831 44.99354691 -10.41693115 43.25192261 C-10.42638199 40.84276256 -10.43291547 38.43358957 -10.43676758 36.02441406 C-10.44647634 32.33945172 -10.47750102 28.65504632 -10.5090332 24.97021484 C-10.51556297 22.63037441 -10.52081355 20.29052998 -10.5246582 17.95068359 C-10.54317841 16.29735519 -10.54317841 16.29735519 -10.56207275 14.61062622 C-10.55907166 13.57960785 -10.55607056 12.54858948 -10.55297852 11.48632812 C-10.55662415 10.58270538 -10.56026978 9.67908264 -10.56402588 8.74807739 C-10.11518396 5.62724319 -9.02543606 3.73946805 -7.1965332 1.19287109 C-4.65878443 -0.07600329 -2.8411273 0.038158 0 0 Z M6.8034668 16.19287109 C6.8034668 26.75287109 6.8034668 37.31287109 6.8034668 48.19287109 C17.0334668 48.19287109 27.2634668 48.19287109 37.8034668 48.19287109 C37.8034668 37.63287109 37.8034668 27.07287109 37.8034668 16.19287109 C27.5734668 16.19287109 17.3434668 16.19287109 6.8034668 16.19287109 Z " fill="#000000" transform="translate(287.196533203125,254.80712890625)"/>
<path d="M0 0 C3.33378538 2.2373503 6.02679308 4.99832118 8.8125 7.875 C10.29681407 9.35293267 11.78243625 10.82955305 13.26953125 12.3046875 C13.91510986 12.96452637 14.56068848 13.62436523 15.22583008 14.30419922 C17.09405889 16.18831872 17.09405889 16.18831872 20 18 C20.50337891 17.45472656 21.00675781 16.90945313 21.52539062 16.34765625 C23.82884092 13.87741166 26.16352594 11.43901524 28.5 9 C29.29148437 8.14148438 30.08296875 7.28296875 30.8984375 6.3984375 C36.78636923 0.31745883 36.78636923 0.31745883 40.29321289 -0.59985352 C43.28693798 -0.64034144 45.69878006 -0.131301 48.4375 1.0625 C50.8279979 4.0267174 51 6.22720352 51 10 C47.9977441 16.43340551 42.02252657 21.11677308 37 26 C35.33102013 27.66435025 33.66368782 29.3303598 32 31 C32.54003662 31.50861572 33.08007324 32.01723145 33.63647461 32.54125977 C36.08595829 34.86564321 38.51161358 37.2135096 40.9375 39.5625 C41.78763672 40.36236328 42.63777344 41.16222656 43.51367188 41.98632812 C50.45014848 48.75699254 50.45014848 48.75699254 51.16015625 52.91015625 C51 56 51 56 49.5 58.875 C46.21833937 61.66441154 44.29320173 62.07402072 40 62 C34.7491279 59.05565505 30.80116516 55.03950575 26.625 50.75 C25.98433594 50.1003125 25.34367187 49.450625 24.68359375 48.78125 C23.11770636 47.19199115 21.55671491 45.59823583 20 44 C16.86594332 45.38596867 14.78165818 46.99071156 12.3984375 49.44140625 C11.74359375 50.10720703 11.08875 50.77300781 10.4140625 51.45898438 C9.40472656 52.50022461 9.40472656 52.50022461 8.375 53.5625 C7.03088131 54.94098537 5.68462847 56.31739401 4.3359375 57.69140625 C3.74345215 58.30185791 3.1509668 58.91230957 2.54052734 59.54125977 C0.37224543 61.59442687 -0.8112817 61.9790313 -3.8125 62.3125 C-7.8794044 61.91378388 -9.35296205 61.11416229 -12 58 C-12.81670809 53.91645955 -13.02536193 51.64394094 -10.80859375 48.08984375 C-8.97292997 45.93570336 -7.02749993 43.97560147 -5 42 C-4.02698649 41.01856942 -3.05573631 40.03538855 -2.0859375 39.05078125 C0.58834641 36.34541608 3.28816585 33.66769942 6 31 C3.13756195 27.50146461 0.26225288 24.20090041 -3.0703125 21.14453125 C-3.88387207 20.38317871 -3.88387207 20.38317871 -4.71386719 19.60644531 C-5.80519623 18.59210597 -6.9124372 17.59457261 -8.03613281 16.61621094 C-10.17749776 14.60438036 -11.83229757 12.8660545 -12.40136719 9.92724609 C-12.46933919 6.60190492 -12.22255036 4.37091727 -10.5 1.5 C-6.97449107 -0.61530536 -3.93620675 -0.95303941 0 0 Z " fill="#000000" transform="translate(392,425)"/>
<path d="M0 0 C2.875 1.5 2.875 1.5 5 4 C5.67698507 7.38492537 5.91270728 8.81518201 5 12 C3.71699524 13.83888245 3.71699524 13.83888245 2.0246582 15.68579102 C1.38879791 16.38141144 0.75293762 17.07703186 0.09780884 17.79373169 C-3.59504131 21.67750704 -7.35034032 25.49262681 -11.14453125 29.27734375 C-11.99552902 30.12929825 -12.84652679 30.98125275 -13.72331238 31.85902405 C-15.50791706 33.644305 -17.29376824 35.42834072 -19.08081055 37.21118164 C-21.82522162 39.95019661 -24.56420432 42.69455952 -27.30273438 45.43945312 C-29.04134577 47.17740442 -30.78026695 48.91504586 -32.51953125 50.65234375 C-33.34032669 51.47516342 -34.16112213 52.29798309 -35.00679016 53.14573669 C-35.76485458 53.90064896 -36.52291901 54.65556122 -37.30395508 55.43334961 C-37.97123123 56.09983017 -38.63850739 56.76631073 -39.32600403 57.45298767 C-41.45499604 59.42048158 -42.76312175 59.95488033 -45.625 60.5 C-49.31494311 59.95334176 -50.02312249 59.39237887 -52.6796875 56.96875 C-53.38013184 56.33259766 -54.08057617 55.69644531 -54.80224609 55.04101562 C-55.52750488 54.36748047 -56.25276367 53.69394531 -57 53 C-57.70850098 52.35224609 -58.41700195 51.70449219 -59.14697266 51.03710938 C-61.29249807 49.05209342 -63.39848165 47.03146774 -65.5 45 C-66.59054687 43.99066406 -66.59054687 43.99066406 -67.703125 42.9609375 C-72.8515404 37.94800671 -72.8515404 37.94800671 -73.59765625 33.18359375 C-72.79951668 28.93206598 -71.52436307 27.47455279 -68 25 C-64.78125 24.43359375 -64.78125 24.43359375 -61 25 C-58.15519021 26.99968501 -55.89927707 29.43819996 -53.5625 32 C-52.92634766 32.66773438 -52.29019531 33.33546875 -51.63476562 34.0234375 C-50.07275915 35.66765484 -48.53276193 37.32863188 -47 39 C-41.86752722 34.70947319 -37.08557329 30.20737255 -32.38671875 25.44921875 C-31.69109329 24.74980667 -30.99546783 24.05039459 -30.27876282 23.32978821 C-28.07921365 21.11812074 -25.88296357 18.90322271 -23.6875 16.6875 C-20.77758953 13.75105827 -17.8644241 10.81790284 -14.94921875 7.88671875 C-14.28153976 7.21074142 -13.61386078 6.5347641 -12.9259491 5.83830261 C-12.30802994 5.21708023 -11.69011078 4.59585785 -11.0534668 3.95581055 C-10.51054489 3.40765182 -9.96762299 2.8594931 -9.4082489 2.29472351 C-6.44478279 -0.42984403 -3.91134776 -0.38346547 0 0 Z " fill="#000000" transform="translate(445,257)"/>
<path d="M0 0 C2.5 1.5 2.5 1.5 4 4 C4.69899968 7.34112908 4.90696496 8.7976233 4 12 C1.07873774 16.10364603 -2.50137079 19.53045013 -6.10546875 23.02734375 C-7.14870086 24.06580255 -8.1904533 25.10574974 -9.23078918 26.14710999 C-11.41037958 28.32045847 -13.60269676 30.47975602 -15.8059082 32.62915039 C-18.62651387 35.38171111 -21.41997674 38.15996488 -24.20522594 40.94824886 C-26.35311724 43.09505152 -28.5112826 45.2312646 -30.67305946 47.36407661 C-31.70683188 48.38514291 -32.7382194 49.40862975 -33.76714134 50.43458366 C-35.20741489 51.86616451 -36.6623767 53.28292181 -38.11791992 54.69897461 C-38.94176682 55.50757431 -39.76561371 56.31617401 -40.61442566 57.14927673 C-43.19663276 59.15254726 -44.76985632 59.73880449 -48 60 C-52.30686904 58.87428394 -54.73731497 56.62667778 -57.828125 53.5 C-58.70984375 52.613125 -59.5915625 51.72625 -60.5 50.8125 C-61.86125 49.4203125 -61.86125 49.4203125 -63.25 48 C-64.63445312 46.6078125 -64.63445312 46.6078125 -66.046875 45.1875 C-73.88345102 37.25872897 -73.88345102 37.25872897 -74.3125 32.625 C-74 29 -74 29 -72.3125 26.625 C-69.66289173 24.76311311 -68.24286253 24.07721101 -65 24 C-59.98621294 26.0447288 -56.77737886 28.84158476 -53.125 32.6875 C-52.62742187 33.19861328 -52.12984375 33.70972656 -51.6171875 34.23632812 C-50.40441824 35.48408112 -49.20119281 36.74109864 -48 38 C-44.82042549 36.60252616 -42.76037195 34.97315672 -40.36816406 32.46826172 C-39.67354065 31.74766571 -38.97891724 31.0270697 -38.26324463 30.28463745 C-37.15067291 29.11893723 -37.15067291 29.11893723 -36.015625 27.9296875 C-34.42539289 26.29468371 -32.83421748 24.66059697 -31.2421875 23.02734375 C-28.73996161 20.4508868 -26.2443852 17.86911715 -23.76464844 15.27099609 C-21.36649781 12.76383862 -18.94367617 10.28285309 -16.515625 7.8046875 C-15.78200745 7.02350555 -15.04838989 6.24232361 -14.2925415 5.43746948 C-9.49028346 0.58727502 -6.86928326 -1.10230617 0 0 Z " fill="#000000" transform="translate(446,342)"/>
</svg>
